<svg class="main-svg" xmlns="http://www.w3.org/2000/svg" xmlns:xlink="http://www.w3.org/1999/xlink" width="700" height="500" style="" viewBox="0 0 700 500"><rect x="0" y="0" width="700" height="500" style="fill: rgb(255, 255, 255); fill-opacity: 1;"/><defs id="defs-025861"><g class="clips"><clipPath id="clip025861xyplot" class="plotclip"><rect width="132" height="360"/></clipPath><clipPath class="axesclip" id="clip025861x"><rect x="80" y="0" width="132" height="500"/></clipPath><clipPath class="axesclip" id="clip025861y"><rect x="0" y="60" width="700" height="360"/></clipPath><clipPath class="axesclip" id="clip025861xy"><rect x="80" y="60" width="132" height="360"/></clipPath></g><g class="gradients"/><g class="patterns"/></defs><g class="bglayer"><rect class="bg" x="80" y="60" width="132" height="360" style="fill: rgb(229, 236, 246); fill-opacity: 1; stroke-width: 0;"/></g><g class="layer-below"><g class="imagelayer"/><g class="shapelayer"/></g><g class="cartesianlayer"><g class="subplot xy"><g class="layer-subplot"><g class="shapelayer"/><g class="imagelayer"/></g><g class="minor-gridlayer"><g class="x"/><g class="y"/></g><g class="gridlayer"><g class="x"><path class="xgrid crisp" transform="translate(130.77,0)" d="M0,60v360" style="stroke: rgb(255, 255, 255); stroke-opacity: 1; stroke-width: 1px;"/><path class="xgrid crisp" transform="translate(181.54000000000002,0)" d="M0,60v360" style="stroke: rgb(255, 255, 255); stroke-opacity: 1; stroke-width: 1px;"/></g><g class="y"><path class="ygrid crisp" transform="translate(0,350.63)" d="M80,0h132" style="stroke: rgb(255, 255, 255); stroke-opacity: 1; stroke-width: 1px;"/><path class="ygrid crisp" transform="translate(0,281.26)" d="M80,0h132" style="stroke: rgb(255, 255, 255); stroke-opacity: 1; stroke-width: 1px;"/><path class="ygrid crisp" transform="translate(0,211.89)" d="M80,0h132" style="stroke: rgb(255, 255, 255); stroke-opacity: 1; stroke-width: 1px;"/><path class="ygrid crisp" transform="translate(0,142.53)" d="M80,0h132" style="stroke: rgb(255, 255, 255); stroke-opacity: 1; stroke-width: 1px;"/><path class="ygrid crisp" transform="translate(0,73.16)" d="M80,0h132" style="stroke: rgb(255, 255, 255); stroke-opacity: 1; stroke-width: 1px;"/></g></g><g class="zerolinelayer"><path class="yzl zl crisp" transform="translate(0,420)" d="M80,0h132" style="stroke: rgb(255, 255, 255); stroke-opacity: 1; stroke-width: 2px;"/></g><path class="xlines-below"/><path class="ylines-below"/><g class="overlines-below"/><g class="xaxislayer-below"/><g class="yaxislayer-below"/><g class="overaxes-below"/><g class="plot" transform="translate(80,60)" clip-path="url(#clip025861xyplot)"><g class="scatterlayer mlayer"><g class="trace scatter trace50765e" style="stroke-miterlimit: 2;"><g class="fills"><g><path class="js-fill" d="M132,360L0,360L0,360L5.08,344.46L10.15,342.48L15.23,346.08L20.31,360L25.38,343.8L30.46,342.24L35.54,337.44L40.62,342.95L45.69,360L50.77,342.41L55.85,345.81L60.92,339.73L66,338.61L71.08,338.44L81.23,338.22L86.31,338.37L91.38,339.69L96.46,336.57L101.54,334.36L106.62,334.58L111.69,329.52L116.77,327.37L121.85,333.67L126.92,331.91L132,330.01" style="fill: rgb(99, 110, 250); fill-opacity: 0.5; stroke-width: 0;"/></g><g><path class="js-fill" d="M0,360L5.08,322.92L10.15,342.48L15.23,346.08L20.31,360L25.38,343.8L30.46,342.24L35.54,337.44L40.62,342.95L45.69,360L50.77,342.41L55.85,345.81L60.92,339.73L66,338.61L71.08,338.44L81.23,338.22L86.31,338.37L91.38,339.69L96.46,336.57L101.54,334.36L106.62,334.58L111.69,329.52L116.77,311.91L121.85,319.49L126.92,331.91L132,330.01L132,330.01L126.92,331.91L121.85,333.67L116.77,327.37L111.69,329.52L106.62,334.58L101.54,334.36L96.46,336.57L91.38,339.69L86.31,338.37L81.23,338.22L71.08,338.44L66,338.61L60.92,339.73L55.85,345.81L50.77,342.41L45.69,360L40.62,342.95L35.54,337.44L30.46,342.24L25.38,343.8L20.31,360L15.23,346.08L10.15,342.48L5.08,344.46L0,360Z" style="fill: rgb(239, 85, 59); fill-opacity: 0.5; stroke-width: 0;"/></g></g><g class="errorbars"/><g class="lines"><path class="js-line" d="M0,360L5.08,344.46L10.15,342.48L15.23,346.08L20.31,360L25.38,343.8L30.46,342.24L35.54,337.44L40.62,342.95L45.69,360L50.77,342.41L55.85,345.81L60.92,339.73L66,338.61L71.08,338.44L81.23,338.22L86.31,338.37L91.38,339.69L96.46,336.57L101.54,334.36L106.62,334.58L111.69,329.52L116.77,327.37L121.85,333.67L126.92,331.91L132,330.01" style="vector-effect: non-scaling-stroke; fill: none; stroke: rgb(99, 110, 250); stroke-opacity: 1; stroke-width: 2px; opacity: 1;"/></g><g class="points"/><g class="text"/></g><g class="trace scatter trace561be8" style="stroke-miterlimit: 2;"><g class="fills"><g><path class="js-fill" d="M0,360L5.08,322.92L10.15,342.48L15.23,346.08L20.31,360L25.38,343.8L30.46,342.24L35.54,337.44L40.62,342.95L45.69,360L50.77,342.41L55.85,345.81L60.92,339.73L66,338.61L71.08,338.44L81.23,338.22L86.31,338.37L91.38,339.69L96.46,336.57L101.54,334.36L106.62,334.58L111.69,329.52L116.77,311.91L121.85,319.49L126.92,317.53L132,315.44L132,330.01L126.92,331.91L121.85,319.49L116.77,311.91L111.69,329.52L106.62,334.58L101.54,334.36L96.46,336.57L91.38,339.69L86.31,338.37L81.23,338.22L71.08,338.44L66,338.61L60.92,339.73L55.85,345.81L50.77,342.41L45.69,360L40.62,342.95L35.54,337.44L30.46,342.24L25.38,343.8L20.31,360L15.23,346.08L10.15,342.48L5.08,322.92L0,360Z" style="fill: rgb(0, 204, 150); fill-opacity: 0.5; stroke-width: 0;"/></g></g><g class="errorbars"/><g class="lines"><path class="js-line" d="M0,360L5.08,322.92L10.15,342.48L15.23,346.08L20.31,360L25.38,343.8L30.46,342.24L35.54,337.44L40.62,342.95L45.69,360L50.77,342.41L55.85,345.81L60.92,339.73L66,338.61L71.08,338.44L81.23,338.22L86.31,338.37L91.38,339.69L96.46,336.57L101.54,334.36L106.62,334.58L111.69,329.52L116.77,311.91L121.85,319.49L126.92,331.91L132,330.01" style="vector-effect: non-scaling-stroke; fill: none; stroke: rgb(239, 85, 59); stroke-opacity: 1; stroke-width: 2px; opacity: 1;"/></g><g class="points"/><g class="text"/></g><g class="trace scatter trace7530de" style="stroke-miterlimit: 2;"><g class="fills"><g><path class="js-fill" d="M0,360L5.08,322.92L10.15,342.48L15.23,346.08L20.31,360L25.38,343.8L30.46,322.58L35.54,300.9L40.62,310.48L45.69,326.44L50.77,312.21L55.85,318.31L60.92,313.83L71.08,309.35L76.15,315.08L81.23,319.63L86.31,315.52L91.38,315.08L96.46,317.82L101.54,307.45L106.62,304.3L111.69,305.49L116.77,284.53L121.85,294.81L126.92,302.55L132,315.44L132,315.44L126.92,317.53L121.85,319.49L116.77,311.91L111.69,329.52L106.62,334.58L101.54,334.36L96.46,336.57L91.38,339.69L86.31,338.37L81.23,338.22L71.08,338.44L66,338.61L60.92,339.73L55.85,345.81L50.77,342.41L45.69,360L40.62,342.95L35.54,337.44L30.46,342.24L25.38,343.8L20.31,360L15.23,346.08L10.15,342.48L5.08,322.92L0,360Z" style="fill: rgb(171, 99, 250); fill-opacity: 0.5; stroke-width: 0;"/></g></g><g class="errorbars"/><g class="lines"><path class="js-line" d="M0,360L5.08,322.92L10.15,342.48L15.23,346.08L20.31,360L25.38,343.8L30.46,342.24L35.54,337.44L40.62,342.95L45.69,360L50.77,342.41L55.85,345.81L60.92,339.73L66,338.61L71.08,338.44L81.23,338.22L86.31,338.37L91.38,339.69L96.46,336.57L101.54,334.36L106.62,334.58L111.69,329.52L116.77,311.91L121.85,319.49L126.92,317.53L132,315.44" style="vector-effect: non-scaling-stroke; fill: none; stroke: rgb(0, 204, 150); stroke-opacity: 1; stroke-width: 2px; opacity: 1;"/></g><g class="points"/><g class="text"/></g><g class="trace scatter trace6ef4ad" style="stroke-miterlimit: 2;"><g class="fills"><g><path class="js-fill" d="M0,343.73L5.08,302.45L10.15,319.17L15.23,324.28L20.31,335.36L25.38,322.9L30.46,299.16L35.54,277.91L40.62,279.38L45.69,298.86L50.77,289.76L55.85,294.57L60.92,292.1L66,284L71.08,268.38L76.15,288.74L81.23,292.84L86.31,286.01L91.38,285.57L96.46,288.47L101.54,277.92L106.62,273.69L111.69,281.43L116.77,258.64L121.85,271.39L132,285.14L132,315.44L126.92,302.55L121.85,294.81L116.77,284.53L111.69,305.49L106.62,304.3L101.54,307.45L96.46,317.82L91.38,315.08L86.31,315.52L81.23,319.63L76.15,315.08L71.08,309.35L60.92,313.83L55.85,318.31L50.77,312.21L45.69,326.44L40.62,310.48L35.54,300.9L30.46,322.58L25.38,343.8L20.31,360L15.23,346.08L10.15,342.48L5.08,322.92L0,360Z" style="fill: rgb(255, 161, 90); fill-opacity: 0.5; stroke-width: 0;"/></g></g><g class="errorbars"/><g class="lines"><path class="js-line" d="M0,360L5.08,322.92L10.15,342.48L15.23,346.08L20.31,360L25.38,343.8L30.46,322.58L35.54,300.9L40.62,310.48L45.69,326.44L50.77,312.21L55.85,318.31L60.92,313.83L71.08,309.35L76.15,315.08L81.23,319.63L86.31,315.52L91.38,315.08L96.46,317.82L101.54,307.45L106.62,304.3L111.69,305.49L116.77,284.53L121.85,294.81L126.92,302.55L132,315.44" style="vector-effect: non-scaling-stroke; fill: none; stroke: rgb(171, 99, 250); stroke-opacity: 1; stroke-width: 2px; opacity: 1;"/></g><g class="points"/><g class="text"/></g><g class="trace scatter tracea2263b" style="stroke-miterlimit: 2;"><g class="fills"><g><path class="js-fill" d="M0,318.71L5.08,276.98L10.15,293.28L15.23,297.78L20.31,308.82L25.38,296.81L30.46,274.18L35.54,253.37L40.62,256.22L45.69,274.72L50.77,265.99L55.85,271.32L60.92,268.11L66,259.68L71.08,244.21L76.15,264.98L81.23,269.4L86.31,263.08L91.38,265.99L96.46,270.17L101.54,261.18L106.62,257.27L111.69,264.48L116.77,241.37L121.85,253.96L132,267.37L132,285.14L121.85,271.39L116.77,258.64L111.69,281.43L106.62,273.69L101.54,277.92L96.46,288.47L91.38,285.57L86.31,286.01L81.23,292.84L76.15,288.74L71.08,268.38L66,284L60.92,292.1L55.85,294.57L50.77,289.76L45.69,298.86L40.62,279.38L35.54,277.91L30.46,299.16L25.38,322.9L20.31,335.36L15.23,324.28L10.15,319.17L5.08,302.45L0,343.73Z" style="fill: rgb(25, 211, 243); fill-opacity: 0.5; stroke-width: 0;"/></g></g><g class="errorbars"/><g class="lines"><path class="js-line" d="M0,343.73L5.08,302.45L10.15,319.17L15.23,324.28L20.31,335.36L25.38,322.9L30.46,299.16L35.54,277.91L40.62,279.38L45.69,298.86L50.77,289.76L55.85,294.57L60.92,292.1L66,284L71.08,268.38L76.15,288.74L81.23,292.84L86.31,286.01L91.38,285.57L96.46,288.47L101.54,277.92L106.62,273.69L111.69,281.43L116.77,258.64L121.85,271.39L132,285.14" style="vector-effect: non-scaling-stroke; fill: none; stroke: rgb(255, 161, 90); stroke-opacity: 1; stroke-width: 2px; opacity: 1;"/></g><g class="points"/><g class="text"/></g><g class="trace scatter tracedf7f9a" style="stroke-miterlimit: 2;"><g class="fills"><g><path class="js-fill" d="M0,279.74L5.08,246.5L10.15,248.14L15.23,267.62L20.31,248.57L25.38,250.47L30.46,231.32L35.54,179.82L40.62,210.41L45.69,221.06L50.77,238.84L55.85,214.51L60.92,212.23L66,205.95L71.08,179.5L76.15,229.78L81.23,221.61L86.31,180.65L91.38,248.32L96.46,252.6L101.54,209.15L106.62,198.72L111.69,211.36L116.77,199.72L121.85,253.96L126.92,238.01L132,239.66L132,267.37L121.85,253.96L116.77,241.37L111.69,264.48L106.62,257.27L101.54,261.18L96.46,270.17L91.38,265.99L86.31,263.08L81.23,269.4L76.15,264.98L71.08,244.21L66,259.68L60.92,268.11L55.85,271.32L50.77,265.99L45.69,274.72L40.62,256.22L35.54,253.37L30.46,274.18L25.38,296.81L20.31,308.82L15.23,297.78L10.15,293.28L5.08,276.98L0,318.71Z" style="fill: rgb(255, 102, 146); fill-opacity: 0.5; stroke-width: 0;"/></g></g><g class="errorbars"/><g class="lines"><path class="js-line" d="M0,318.71L5.08,276.98L10.15,293.28L15.23,297.78L20.31,308.82L25.38,296.81L30.46,274.18L35.54,253.37L40.62,256.22L45.69,274.72L50.77,265.99L55.85,271.32L60.92,268.11L66,259.68L71.08,244.21L76.15,264.98L81.23,269.4L86.31,263.08L91.38,265.99L96.46,270.17L101.54,261.18L106.62,257.27L111.69,264.48L116.77,241.37L121.85,253.96L132,267.37" style="vector-effect: non-scaling-stroke; fill: none; stroke: rgb(25, 211, 243); stroke-opacity: 1; stroke-width: 2px; opacity: 1;"/></g><g class="points"/><g class="text"/></g><g class="trace scatter tracee83ed1" style="stroke-miterlimit: 2;"><g class="fills"><g><path class="js-fill" d="M0,229.35L5.08,185.26L10.15,199.47L15.23,201.55L20.31,210.87L25.38,187.86L30.46,154.57L35.54,123.45L40.62,139.1L45.69,157.79L50.77,148.86L55.85,154.53L60.92,125.95L66,117.42L71.08,101.96L76.15,122.33L81.23,110.55L86.31,88.09L91.38,120.83L96.46,170.71L101.54,165.31L106.62,171.79L111.69,135.34L116.77,114.94L121.85,189.15L126.92,206.03L132,216.41L132,239.66L126.92,238.01L121.85,253.96L116.77,199.72L111.69,211.36L106.62,198.72L101.54,209.15L96.46,252.6L91.38,248.32L86.31,180.65L81.23,221.61L76.15,229.78L71.08,179.5L66,205.95L60.92,212.23L55.85,214.51L50.77,238.84L45.69,221.06L40.62,210.41L35.54,179.82L30.46,231.32L25.38,250.47L20.31,248.57L15.23,267.62L10.15,248.14L5.08,246.5L0,279.74Z" style="fill: rgb(182, 232, 128); fill-opacity: 0.5; stroke-width: 0;"/></g></g><g class="errorbars"/><g class="lines"><path class="js-line" d="M0,279.74L5.08,246.5L10.15,248.14L15.23,267.62L20.31,248.57L25.38,250.47L30.46,231.32L35.54,179.82L40.62,210.41L45.69,221.06L50.77,238.84L55.85,214.51L60.92,212.23L66,205.95L71.08,179.5L76.15,229.78L81.23,221.61L86.31,180.65L91.38,248.32L96.46,252.6L101.54,209.15L106.62,198.72L111.69,211.36L116.77,199.72L121.85,253.96L126.92,238.01L132,239.66" style="vector-effect: non-scaling-stroke; fill: none; stroke: rgb(255, 102, 146); stroke-opacity: 1; stroke-width: 2px; opacity: 1;"/></g><g class="points"/><g class="text"/></g><g class="trace scatter trace6f2e20" style="stroke-miterlimit: 2;"><g class="fills"><g><path class="js-fill" d="M0,161.52L5.08,116.17L10.15,129.29L15.23,129.52L20.31,138.37L25.38,116.74L30.46,86.34L35.54,56.37L40.62,76.08L45.69,91.75L50.77,83.51L55.85,89.71L60.92,58.18L66,47.72L71.08,31.64L76.15,52L81.23,40.1L86.31,18L91.38,52.45L96.46,106.39L101.54,106.43L106.62,114.41L111.69,76.05L116.77,54.47L121.85,128.28L126.92,144.56L132,154.32L132,216.41L126.92,206.03L121.85,189.15L116.77,114.94L111.69,135.34L106.62,171.79L101.54,165.31L96.46,170.71L91.38,120.83L86.31,88.09L81.23,110.55L76.15,122.33L71.08,101.96L66,117.42L60.92,125.95L55.85,154.53L50.77,148.86L45.69,157.79L40.62,139.1L35.54,123.45L30.46,154.57L25.38,187.86L20.31,210.87L15.23,201.55L10.15,199.47L5.08,185.26L0,229.35Z" style="fill: rgb(255, 151, 255); fill-opacity: 0.5; stroke-width: 0;"/></g></g><g class="errorbars"/><g class="lines"><path class="js-line" d="M0,229.35L5.08,185.26L10.15,199.47L15.23,201.55L20.31,210.87L25.38,187.86L30.46,154.57L35.54,123.45L40.62,139.1L45.69,157.79L50.77,148.86L55.85,154.53L60.92,125.95L66,117.42L71.08,101.96L76.15,122.33L81.23,110.55L86.31,88.09L91.38,120.83L96.46,170.71L101.54,165.31L106.62,171.79L111.69,135.34L116.77,114.94L121.85,189.15L126.92,206.03L132,216.41" style="vector-effect: non-scaling-stroke; fill: none; stroke: rgb(182, 232, 128); stroke-opacity: 1; stroke-width: 2px; opacity: 1;"/></g><g class="points"/><g class="text"/></g><g class="trace scatter trace21af77" style="stroke-miterlimit: 2;"><g class="fills"/><g class="errorbars"/><g class="lines"><path class="js-line" d="M0,161.52L5.08,116.17L10.15,129.29L15.23,129.52L20.31,138.37L25.38,116.74L30.46,86.34L35.54,56.37L40.62,76.08L45.69,91.75L50.77,83.51L55.85,89.71L60.92,58.18L66,47.72L71.08,31.64L76.15,52L81.23,40.1L86.31,18L91.38,52.45L96.46,106.39L101.54,106.43L106.62,114.41L111.69,76.05L116.77,54.47L121.85,128.28L126.92,144.56L132,154.32" style="vector-effect: non-scaling-stroke; fill: none; stroke: rgb(255, 151, 255); stroke-opacity: 1; stroke-width: 2px; opacity: 1;"/></g><g class="points"/><g class="text"/></g></g></g><g class="overplot"/><path class="xlines-above crisp" d="M0,0" style="fill: none;"/><path class="ylines-above crisp" d="M0,0" style="fill: none;"/><g class="overlines-above"/><g class="xaxislayer-above"><g class="xtick"><text text-anchor="middle" x="0" y="433" transform="translate(80,0)" style="font-family: 'Open Sans', verdana, arial, sans-serif; font-size: 12px; fill: rgb(42, 63, 95); fill-opacity: 1; white-space: pre; opacity: 1;">1990</text></g><g class="xtick"><text text-anchor="middle" x="0" y="433" style="font-family: 'Open Sans', verdana, arial, sans-serif; font-size: 12px; fill: rgb(42, 63, 95); fill-opacity: 1; white-space: pre; opacity: 1;" transform="translate(130.77,0)">2000</text></g><g class="xtick"><text text-anchor="middle" x="0" y="433" style="font-family: 'Open Sans', verdana, arial, sans-serif; font-size: 12px; fill: rgb(42, 63, 95); fill-opacity: 1; white-space: pre; opacity: 1;" transform="translate(181.54000000000002,0)">2010</text></g></g><g class="yaxislayer-above"><g class="ytick"><text text-anchor="end" x="79" y="4.199999999999999" transform="translate(0,420)" style="font-family: 'Open Sans', verdana, arial, sans-serif; font-size: 12px; fill: rgb(42, 63, 95); fill-opacity: 1; white-space: pre; opacity: 1;">0</text></g><g class="ytick"><text text-anchor="end" x="79" y="4.199999999999999" style="font-family: 'Open Sans', verdana, arial, sans-serif; font-size: 12px; fill: rgb(42, 63, 95); fill-opacity: 1; white-space: pre; opacity: 1;" transform="translate(0,350.63)">50</text></g><g class="ytick"><text text-anchor="end" x="79" y="4.199999999999999" style="font-family: 'Open Sans', verdana, arial, sans-serif; font-size: 12px; fill: rgb(42, 63, 95); fill-opacity: 1; white-space: pre; opacity: 1;" transform="translate(0,281.26)">100</text></g><g class="ytick"><text text-anchor="end" x="79" y="4.199999999999999" style="font-family: 'Open Sans', verdana, arial, sans-serif; font-size: 12px; fill: rgb(42, 63, 95); fill-opacity: 1; white-space: pre; opacity: 1;" transform="translate(0,211.89)">150</text></g><g class="ytick"><text text-anchor="end" x="79" y="4.199999999999999" style="font-family: 'Open Sans', verdana, arial, sans-serif; font-size: 12px; fill: rgb(42, 63, 95); fill-opacity: 1; white-space: pre; opacity: 1;" transform="translate(0,142.53)">200</text></g><g class="ytick"><text text-anchor="end" x="79" y="4.199999999999999" style="font-family: 'Open Sans', verdana, arial, sans-serif; font-size: 12px; fill: rgb(42, 63, 95); fill-opacity: 1; white-space: pre; opacity: 1;" transform="translate(0,73.16)">250</text></g></g><g class="overaxes-above"/></g></g><g class="polarlayer"/><g class="smithlayer"/><g class="ternarylayer"/><g class="geolayer"/><g class="funnelarealayer"/><g class="pielayer"/><g class="iciclelayer"/><g class="treemaplayer"/><g class="sunburstlayer"/><g class="glimages"/><defs id="topdefs-025861"><g class="clips"/><clipPath id="legend025861"><rect width="473" height="200" x="0" y="0"/></clipPath></defs><g class="layer-above"><g class="imagelayer"/><g class="shapelayer"/></g><g class="infolayer"><g class="legend" pointer-events="all" transform="translate(214.64000000000001,60)"><rect class="bg" shape-rendering="crispEdges" width="473" height="200" x="0" y="0" style="stroke: rgb(68, 68, 68); stroke-opacity: 1; fill: rgb(255, 255, 255); fill-opacity: 1; stroke-width: 0px;"/><g class="scrollbox" transform="" clip-path="url(#legend025861)"><text class="legendtitletext" text-anchor="start" x="2" y="18.2" style="font-family: 'Open Sans', verdana, arial, sans-serif; font-size: 14px; fill: rgb(42, 63, 95); fill-opacity: 1; white-space: pre;">fuente_de_emision_y_absorcion</text><g class="groups" transform=""><g class="traces" transform="translate(0,32.7)" style="opacity: 1;"><text class="legendtext" text-anchor="start" x="40" y="4.680000000000001" style="font-family: 'Open Sans', verdana, arial, sans-serif; font-size: 12px; fill: rgb(42, 63, 95); fill-opacity: 1; white-space: pre;">Tierras forestales que permanecen como tales (Remocion Bosque Cultivado)</text><g class="layers"><g class="legendfill"><path class="js-fill" d="M5,-2h30v6h-30z" style="stroke-width: 0; fill: rgb(99, 110, 250); fill-opacity: 0.5;"/></g><g class="legendlines"><path class="js-line" d="M5,-2h30" style="fill: none; stroke: rgb(99, 110, 250); stroke-opacity: 1; stroke-width: 2px;"/></g><g class="legendsymbols"><g class="legendpoints"/></g></g><rect class="legendtoggle" x="0" y="-9.5" width="467.765625" height="19" style="fill: rgb(0, 0, 0); fill-opacity: 0;"/></g></g><g class="groups" transform=""><g class="traces" transform="translate(0,51.7)" style="opacity: 1;"><text class="legendtext" text-anchor="start" x="40" y="4.680000000000001" style="font-family: 'Open Sans', verdana, arial, sans-serif; font-size: 12px; fill: rgb(42, 63, 95); fill-opacity: 1; white-space: pre;">Suelos cultivados convertidos en pastizales</text><g class="layers"><g class="legendfill"><path class="js-fill" d="M5,-2h30v6h-30z" style="stroke-width: 0; fill: rgb(239, 85, 59); fill-opacity: 0.5;"/></g><g class="legendlines"><path class="js-line" d="M5,-2h30" style="fill: none; stroke: rgb(239, 85, 59); stroke-opacity: 1; stroke-width: 2px;"/></g><g class="legendsymbols"><g class="legendpoints"/></g></g><rect class="legendtoggle" x="0" y="-9.5" width="467.765625" height="19" style="fill: rgb(0, 0, 0); fill-opacity: 0;"/></g></g><g class="groups" transform=""><g class="traces" transform="translate(0,70.7)" style="opacity: 1;"><text class="legendtext" text-anchor="start" x="40" y="4.680000000000001" style="font-family: 'Open Sans', verdana, arial, sans-serif; font-size: 12px; fill: rgb(42, 63, 95); fill-opacity: 1; white-space: pre;">Directas Residuos de Cosecha</text><g class="layers"><g class="legendfill"><path class="js-fill" d="M5,-2h30v6h-30z" style="stroke-width: 0; fill: rgb(0, 204, 150); fill-opacity: 0.5;"/></g><g class="legendlines"><path class="js-line" d="M5,-2h30" style="fill: none; stroke: rgb(0, 204, 150); stroke-opacity: 1; stroke-width: 2px;"/></g><g class="legendsymbols"><g class="legendpoints"/></g></g><rect class="legendtoggle" x="0" y="-9.5" width="467.765625" height="19" style="fill: rgb(0, 0, 0); fill-opacity: 0;"/></g></g><g class="groups" transform=""><g class="traces" transform="translate(0,89.7)" style="opacity: 1;"><text class="legendtext" text-anchor="start" x="40" y="4.680000000000001" style="font-family: 'Open Sans', verdana, arial, sans-serif; font-size: 12px; fill: rgb(42, 63, 95); fill-opacity: 1; white-space: pre;">Variacion de materia organica del suelo (Carbono) </text><g class="layers"><g class="legendfill"><path class="js-fill" d="M5,-2h30v6h-30z" style="stroke-width: 0; fill: rgb(171, 99, 250); fill-opacity: 0.5;"/></g><g class="legendlines"><path class="js-line" d="M5,-2h30" style="fill: none; stroke: rgb(171, 99, 250); stroke-opacity: 1; stroke-width: 2px;"/></g><g class="legendsymbols"><g class="legendpoints"/></g></g><rect class="legendtoggle" x="0" y="-9.5" width="467.765625" height="19" style="fill: rgb(0, 0, 0); fill-opacity: 0;"/></g></g><g class="groups" transform=""><g class="traces" transform="translate(0,108.7)" style="opacity: 1;"><text class="legendtext" text-anchor="start" x="40" y="4.680000000000001" style="font-family: 'Open Sans', verdana, arial, sans-serif; font-size: 12px; fill: rgb(42, 63, 95); fill-opacity: 1; white-space: pre;">Tierras forestales que permanecen como tales (emision Bosque Nativo)</text><g class="layers"><g class="legendfill"><path class="js-fill" d="M5,-2h30v6h-30z" style="stroke-width: 0; fill: rgb(255, 161, 90); fill-opacity: 0.5;"/></g><g class="legendlines"><path class="js-line" d="M5,-2h30" style="fill: none; stroke: rgb(255, 161, 90); stroke-opacity: 1; stroke-width: 2px;"/></g><g class="legendsymbols"><g class="legendpoints"/></g></g><rect class="legendtoggle" x="0" y="-9.5" width="467.765625" height="19" style="fill: rgb(0, 0, 0); fill-opacity: 0;"/></g></g><g class="groups" transform=""><g class="traces" transform="translate(0,127.7)" style="opacity: 1;"><text class="legendtext" text-anchor="start" x="40" y="4.680000000000001" style="font-family: 'Open Sans', verdana, arial, sans-serif; font-size: 12px; fill: rgb(42, 63, 95); fill-opacity: 1; white-space: pre;">Directas excretas en pasturas Bovinos de Carne</text><g class="layers"><g class="legendfill"><path class="js-fill" d="M5,-2h30v6h-30z" style="stroke-width: 0; fill: rgb(25, 211, 243); fill-opacity: 0.5;"/></g><g class="legendlines"><path class="js-line" d="M5,-2h30" style="fill: none; stroke: rgb(25, 211, 243); stroke-opacity: 1; stroke-width: 2px;"/></g><g class="legendsymbols"><g class="legendpoints"/></g></g><rect class="legendtoggle" x="0" y="-9.5" width="467.765625" height="19" style="fill: rgb(0, 0, 0); fill-opacity: 0;"/></g></g><g class="groups" transform=""><g class="traces" transform="translate(0,146.7)" style="opacity: 1;"><text class="legendtext" text-anchor="start" x="40" y="4.680000000000001" style="font-family: 'Open Sans', verdana, arial, sans-serif; font-size: 12px; fill: rgb(42, 63, 95); fill-opacity: 1; white-space: pre;">Tierras forestales convertidas en suelos cultivados</text><g class="layers"><g class="legendfill"><path class="js-fill" d="M5,-2h30v6h-30z" style="stroke-width: 0; fill: rgb(255, 102, 146); fill-opacity: 0.5;"/></g><g class="legendlines"><path class="js-line" d="M5,-2h30" style="fill: none; stroke: rgb(255, 102, 146); stroke-opacity: 1; stroke-width: 2px;"/></g><g class="legendsymbols"><g class="legendpoints"/></g></g><rect class="legendtoggle" x="0" y="-9.5" width="467.765625" height="19" style="fill: rgb(0, 0, 0); fill-opacity: 0;"/></g></g><g class="groups" transform=""><g class="traces" transform="translate(0,165.7)" style="opacity: 1;"><text class="legendtext" text-anchor="start" x="40" y="4.680000000000001" style="font-family: 'Open Sans', verdana, arial, sans-serif; font-size: 12px; fill: rgb(42, 63, 95); fill-opacity: 1; white-space: pre;">Tierras forestales convertidas en pastizales</text><g class="layers"><g class="legendfill"><path class="js-fill" d="M5,-2h30v6h-30z" style="stroke-width: 0; fill: rgb(182, 232, 128); fill-opacity: 0.5;"/></g><g class="legendlines"><path class="js-line" d="M5,-2h30" style="fill: none; stroke: rgb(182, 232, 128); stroke-opacity: 1; stroke-width: 2px;"/></g><g class="legendsymbols"><g class="legendpoints"/></g></g><rect class="legendtoggle" x="0" y="-9.5" width="467.765625" height="19" style="fill: rgb(0, 0, 0); fill-opacity: 0;"/></g></g><g class="groups" transform=""><g class="traces" transform="translate(0,184.7)" style="opacity: 1;"><text class="legendtext" text-anchor="start" x="40" y="4.680000000000001" style="font-family: 'Open Sans', verdana, arial, sans-serif; font-size: 12px; fill: rgb(42, 63, 95); fill-opacity: 1; white-space: pre;">Fermentacion enterica Bovinos de Carne</text><g class="layers"><g class="legendfill"><path class="js-fill" d="M5,-2h30v6h-30z" style="stroke-width: 0; fill: rgb(255, 151, 255); fill-opacity: 0.5;"/></g><g class="legendlines"><path class="js-line" d="M5,-2h30" style="fill: none; stroke: rgb(255, 151, 255); stroke-opacity: 1; stroke-width: 2px;"/></g><g class="legendsymbols"><g class="legendpoints"/></g></g><rect class="legendtoggle" x="0" y="-9.5" width="467.765625" height="19" style="fill: rgb(0, 0, 0); fill-opacity: 0;"/></g></g></g><rect class="scrollbar" rx="20" ry="3" width="0" height="0" x="0" y="0" style="fill: rgb(128, 139, 164); fill-opacity: 1;"/></g><g class="g-gtitle"/><g class="g-xtitle"><text class="xtitle" x="146" y="461.8" text-anchor="middle" style="font-family: 'Open Sans', verdana, arial, sans-serif; font-size: 14px; fill: rgb(42, 63, 95); opacity: 1; font-weight: normal; white-space: pre;">anio</text></g><g class="g-ytitle"><text class="ytitle" transform="rotate(-90,33.60625,240)" x="33.60625" y="240" text-anchor="middle" style="font-family: 'Open Sans', verdana, arial, sans-serif; font-size: 14px; fill: rgb(42, 63, 95); opacity: 1; font-weight: normal; white-space: pre;">valor(MtCO2eq)</text></g></g></svg>